<?xml version="1.0" encoding="UTF-8"?> <svg xmlns="http://www.w3.org/2000/svg" xmlns:xlink="http://www.w3.org/1999/xlink" width="235px" height="236px" viewBox="0 0 235 236"> <!-- Generator: Sketch 49.1 (51147) - http://www.bohemiancoding.com/sketch --> <title>2708</title> <desc>Created with Sketch.</desc> <defs> <polygon id="path-1" points="0 254.322917 254.322917 254.322917 254.322917 0 0 0"></polygon> </defs> <g id="Page-2" stroke="none" stroke-width="1" fill="none" fill-rule="evenodd"> <g id="2708" transform="translate(-9.000000, -10.000000)"> <g id="g10" transform="translate(127.161458, 127.161458) scale(-1, 1) rotate(-180.000000) translate(-127.161458, -127.161458) "> <g id="g12"> <g id="g14-Clipped"> <mask id="mask-2" fill="white"> <use xlink:href="#path-1"></use> </mask> <g id="path18"></g> <g id="g14" mask="url(#mask-2)"> <g transform="translate(6.692708, 6.692708)"> <g id="g20" transform="translate(174.010417, 74.770268)"> <path d="M26.7708333,6.69270833 C24.1539844,4.06916667 19.9241927,4.06916667 17.3073438,6.69270833 L7.84385417,16.1561979 C5.2203125,18.7730469 5.2203125,23.0095312 7.84385417,25.6196875 L26.7708333,44.5466667 C29.3876823,47.1635156 33.617474,47.1635156 36.2343229,44.5466667 L45.6978125,35.0831771 C48.3213542,32.4730208 48.3213542,28.2365365 45.6978125,25.6196875 L26.7708333,6.69270833 Z" id="path22" fill="#66757F" fill-rule="nonzero"></path> </g> <g id="g24" transform="translate(73.619792, 175.160893)"> <path d="M26.7708333,6.69270833 C24.1539844,4.06916667 19.9241927,4.06916667 17.3073438,6.69270833 L7.84385417,16.1561979 C5.2203125,18.7730469 5.2203125,23.0095312 7.84385417,25.6196875 L26.7708333,44.5466667 C29.3876823,47.1635156 33.617474,47.1635156 36.2343229,44.5466667 L45.6978125,35.0831771 C48.3213542,32.4730208 48.3213542,28.2365365 45.6978125,25.6196875 L26.7708333,6.69270833 Z" id="path26" fill="#66757F" fill-rule="nonzero"></path> </g> <g id="g28"> <path d="M13.3854167,93.6979167 C26.7708333,93.6979167 87.0052083,87.0052083 87.0052083,87.0052083 C87.0052083,87.0052083 93.6979167,26.7708333 93.6979167,13.3854167 C93.6979167,3.10862447e-15 80.3125,3.10862447e-15 73.6197917,6.69270833 C66.9270833,13.3854167 46.8489583,46.8489583 46.8489583,46.8489583 C46.8489583,46.8489583 13.3854167,66.9270833 6.69270833,73.6197917 C8.8817842e-16,80.3125 8.8817842e-16,93.6979167 13.3854167,93.6979167" id="path30" fill="#55ACEE" fill-rule="nonzero"></path> </g> <g id="g32" transform="translate(6.689362, 6.434370)"> <path d="M20.078125,194.088542 C40.15625,194.349557 187.395833,187.656849 187.395833,187.656849 C187.395833,187.656849 193.579896,40.4172656 193.834219,20.3391406 C194.088542,0.261015625 175.348958,-6.44507812 167.986979,20.3324479 C160.625,47.109974 133.854167,134.115182 133.854167,134.115182 C133.854167,134.115182 40.4574219,163.670182 20.0446615,168.26138 C-6.69270833,174.271432 0,193.827526 20.078125,194.088542" id="path34" fill="#55ACEE" fill-rule="nonzero"></path> </g> <g id="g36" transform="translate(33.463542, 33.463542)"> <path d="M147.239583,187.395833 C160.625,200.78125 194.088542,207.473958 200.78125,200.78125 C207.473958,194.088542 200.78125,160.625 187.395833,147.239583 C174.010417,133.854167 60.234375,26.7708333 60.234375,26.7708333 C60.234375,26.7708333 16.7317708,-3.34635417 6.69270833,6.69270833 C-3.34635417,16.7317708 26.7708333,60.234375 26.7708333,60.234375 C26.7708333,60.234375 133.854167,174.010417 147.239583,187.395833" id="path38" fill="#CCD6DD" fill-rule="nonzero"></path> </g> <g id="g40" transform="translate(26.770833, 26.770833)"> <path d="M66.9270833,66.9270833 C66.9270833,66.9270833 70.2734375,63.5807292 40.15625,33.4635417 C10.0390625,3.34635417 6.69270833,6.69270833 6.69270833,6.69270833 C6.69270833,6.69270833 3.34635417,10.0390625 33.4635417,40.15625 C63.5807292,70.2734375 66.9270833,66.9270833 66.9270833,66.9270833" id="path42" fill="#66757F" fill-rule="nonzero"></path> </g> <g id="g44" transform="translate(194.088542, 194.088542)"> <path d="M0,20.078125 C11.0898177,20.078125 20.078125,11.0898177 20.078125,0 L25.4657552,0 C26.228724,2.10820312 26.7708333,4.31679687 26.7708333,6.69270833 C26.7708333,17.782526 17.782526,26.7708333 6.69270833,26.7708333 C4.31679687,26.7708333 2.10151042,26.228724 0,25.4657552 L0,20.078125 Z" id="path46" fill="#66757F" fill-rule="nonzero"></path> </g> </g> </g> </g> </g> </g> </g> </g> </svg> 