<?xml version="1.0" encoding="UTF-8"?> <svg xmlns="http://www.w3.org/2000/svg" xmlns:xlink="http://www.w3.org/1999/xlink" width="242px" height="170px" viewBox="0 0 242 170"> <!-- Generator: Sketch 49.1 (51147) - http://www.bohemiancoding.com/sketch --> <title>1f6b2</title> <desc>Created with Sketch.</desc> <defs> <polygon id="path-1" points="0 254.322917 254.322917 254.322917 254.322917 0 0 0"></polygon> </defs> <g id="Page-2" stroke="none" stroke-width="1" fill="none" fill-rule="evenodd"> <g id="1f6b2" transform="translate(-6.000000, -78.000000)"> <g id="g10" transform="translate(127.161458, 127.161458) scale(-1, 1) rotate(-180.000000) translate(-127.161458, -127.161458) "> <g id="g12"> <g id="g14-Clipped"> <mask id="mask-2" fill="white"> <use xlink:href="#path-1"></use> </mask> <g id="path18"></g> <g id="g14" mask="url(#mask-2)"> <g transform="translate(6.692708, 6.692708)"> <g id="g20" transform="translate(20.081471, 60.234375)"> <path d="M26.7708333,20.078125 C39.8684635,20.078125 51.0854427,12.481901 56.586849,1.5259375 L79.8573958,13.1645573 C70.193125,33.0753646 49.8339062,46.8489583 26.2086458,46.8489583 C17.4947396,46.8489583 9.24263021,44.9415365 1.78695312,41.5817969 L12.9503906,17.0195573 C17.1734896,18.9403646 21.8249219,20.078125 26.7708333,20.078125" id="path22" fill="#EA596E" fill-rule="nonzero"></path> </g> <g id="g24" transform="translate(133.854167, 60.234375)"> <path d="M60.234375,20.078125 C70.0525781,20.078125 78.7865625,15.7747135 84.9170833,9.04854167 L104.305859,26.6771354 C93.3766667,39.0251823 77.4547135,46.8489583 59.6721875,46.8489583 C35.7390625,46.8489583 15.1522917,32.720651 5.64195312,12.3815104 L30.0569531,0.856666667 C35.4245052,12.1807292 46.8690365,20.078125 60.234375,20.078125" id="path26" fill="#EA596E" fill-rule="nonzero"></path> </g> <g id="g28" transform="translate(0.003346, 0.000000)"> <path d="M46.8489583,13.3854167 C28.3703906,13.3854167 13.3854167,28.3636979 13.3854167,46.8489583 C13.3854167,65.3342187 28.3703906,80.3125 46.8489583,80.3125 C65.327526,80.3125 80.3125,65.3342187 80.3125,46.8489583 C80.3125,28.3636979 65.327526,13.3854167 46.8489583,13.3854167 M46.8489583,93.6979167 C20.9749479,93.6979167 0,72.7229688 0,46.8489583 C0,20.9749479 20.9749479,0 46.8489583,0 C72.7229688,0 93.6979167,20.9749479 93.6979167,46.8489583 C93.6979167,72.7229688 72.7229688,93.6979167 46.8489583,93.6979167" id="path30" fill="#292F33" fill-rule="nonzero"></path> </g> <g id="g32" transform="translate(147.239583, 0.000000)"> <path d="M46.8489583,13.3854167 C28.3703906,13.3854167 13.3854167,28.3636979 13.3854167,46.8489583 C13.3854167,65.3342187 28.3703906,80.3125 46.8489583,80.3125 C65.3342187,80.3125 80.3125,65.3342187 80.3125,46.8489583 C80.3125,28.3636979 65.3342187,13.3854167 46.8489583,13.3854167 M46.8489583,93.6979167 C20.9816406,93.6979167 0,72.7229688 0,46.8489583 C0,20.9749479 20.9816406,0 46.8489583,0 C72.7296615,0 93.6979167,20.9749479 93.6979167,46.8489583 C93.6979167,72.7229688 72.7296615,93.6979167 46.8489583,93.6979167" id="path34" fill="#292F33" fill-rule="nonzero"></path> </g> <g id="g36" transform="translate(73.515385, 33.986242)"> <path d="M127.161458,13.3854167 C127.127995,13.8338281 127.020911,14.2688542 126.89375,14.7105729 C126.759896,15.1522917 126.626042,15.5538542 126.418568,15.9554167 C126.331563,16.1160417 126.318177,16.3034375 126.217786,16.4573698 L79.3688281,90.0704687 C77.3877865,93.1892708 73.2516927,94.1128646 70.1328906,92.1251302 C68.1317708,90.8535156 67.1546354,88.6917708 67.1479427,86.4831771 L6.79979167,86.4831771 C3.09872396,86.4831771 0.107083333,83.4915365 0.107083333,79.7904687 C0.107083333,76.089401 3.09872396,73.0977604 6.79979167,73.0977604 L73.726875,73.0977604 C73.9075781,73.0977604 74.0548177,73.1914583 74.2422135,73.2048437 L108.375026,19.5560938 L46.9560417,19.5560938 C43.254974,19.5560938 40.2633333,16.5644531 40.2633333,12.8633854 C40.2633333,9.16231771 43.254974,6.17067708 46.9560417,6.17067708 L120.575833,6.17067708 L120.582526,6.17067708 C121.35888,6.17067708 122.121849,6.35807292 122.871432,6.63247396 C123.105677,6.71947917 123.306458,6.81986979 123.520625,6.92026042 C123.728099,7.03403646 123.955651,7.08757813 124.169818,7.21473958 C124.370599,7.34859375 124.491068,7.55606771 124.671771,7.69661458 C125.03987,7.99109375 125.36112,8.29226563 125.655599,8.65367188 C125.93,8.98161458 126.157552,9.31625 126.358333,9.68434896 C126.559115,10.0591406 126.726432,10.4272396 126.860286,10.8354948 C127.007526,11.2839063 127.081146,11.7189323 127.127995,12.1807292 C127.154766,12.414974 127.268542,12.6224479 127.268542,12.8633854 C127.268542,13.0440885 127.174844,13.2047135 127.161458,13.3854167" id="path38" fill="#DD2E44" fill-rule="nonzero"></path> </g> <g id="g40" transform="translate(70.816216, 40.156250)"> <path d="M73.6197917,93.6979167 L54.2176302,39.3732031 L14.5365625,84.7163021 C12.1004167,87.493776 7.870625,87.7882552 5.09315104,85.3454167 C2.30898438,82.9092708 2.02789063,78.6861719 4.46403646,75.9020052 L49.0642448,24.9370312 L43.3486719,8.94145833 C42.1105208,5.46125 43.9242448,1.63302083 47.4044531,0.394869792 C48.1473438,0.127161458 48.9036198,0 49.6532031,0 C52.4039063,0 54.980599,1.70664063 55.9577344,4.44395833 L87.8351042,93.6979167 L73.6197917,93.6979167 Z" id="path42" fill="#DD2E44" fill-rule="nonzero"></path> </g> <g id="g44" transform="translate(40.152904, 40.156250)"> <path d="M6.69270833,0 C5.68880208,0 4.66481771,0.227552083 3.70776042,0.702734375 C0.4015625,2.36252604 -0.943671875,6.37815104 0.709427083,9.68434896 L21.2025,50.5567188 C21.3296615,50.7374219 33.4702344,69.2628385 33.4702344,87.0052083 C33.4702344,108.696276 18.1238542,114.063828 17.9699219,114.11737 C14.4629427,115.288594 12.5622135,119.076667 13.7334375,122.583646 C14.9046615,126.083932 18.679349,127.998047 22.1997135,126.813438 C23.2103125,126.478802 46.855651,118.240078 46.855651,87.0052083 C46.855651,66.4719792 34.5678385,46.5678646 32.5934896,43.5159896 L12.689375,3.70106771 C11.5114583,1.35192708 9.14893229,0 6.69270833,0" id="path46" fill="#DD2E44" fill-rule="nonzero"></path> </g> <g id="g48" transform="translate(44.254195, 149.497703)"> <path d="M53.5416667,0 C53.1802604,0 52.8054687,0.0267708333 52.4306771,0.0936979167 L12.2744271,6.78640625 C8.63359375,7.38875 6.17067708,10.8421875 6.77971354,14.4897135 C7.38875,18.1238542 10.8020312,20.6001563 14.4830208,19.9844271 L54.6392708,13.2917187 C58.2801042,12.689375 60.7430208,9.2359375 60.1339844,5.58841146 C59.591875,2.32236979 56.7541667,0 53.5416667,0" id="path50" fill="#292F33" fill-rule="nonzero"></path> </g> <g id="g52" transform="translate(129.723427, 127.161458)"> <path d="M46.8489583,0 C46.6481771,0 46.4540885,0.0133854167 46.2533073,0.04015625 L8.29226562,4.77859375 C5.80257812,5.09315104 3.98885417,7.28166667 4.14278646,9.78473958 C4.30341146,12.2878125 6.37145833,14.2286979 8.87453125,14.2353906 C9.14893229,14.2353906 36.1004687,14.3558594 48.9571615,22.9292187 C50.6303385,24.0535937 52.8523177,23.979974 54.4786458,22.7552083 C56.0782031,21.5170573 56.7340885,19.4021615 56.0915885,17.4813542 L51.3464583,3.24596354 C50.6972656,1.285 48.8701562,0 46.8489583,0" id="path54" fill="#292F33" fill-rule="nonzero"></path> </g> <g id="g56" transform="translate(107.083333, 33.463542)"> <path d="M26.7708333,13.3854167 C26.7708333,5.99666667 20.7808594,0 13.3854167,0 C5.99666667,0 0,5.99666667 0,13.3854167 C0,20.7741667 5.99666667,26.7708333 13.3854167,26.7708333 C20.7808594,26.7708333 26.7708333,20.7741667 26.7708333,13.3854167" id="path58" fill="#66757F" fill-rule="nonzero"></path> </g> </g> </g> </g> </g> </g> </g> </g> </svg> 