<?xml version="1.0" encoding="UTF-8"?> <svg xmlns="http://www.w3.org/2000/svg" xmlns:xlink="http://www.w3.org/1999/xlink" width="242px" height="141px" viewBox="0 0 242 141"> <!-- Generator: Sketch 49.1 (51147) - http://www.bohemiancoding.com/sketch --> <title>1f697</title> <desc>Created with Sketch.</desc> <defs> <polygon id="path-1" points="0 254.322917 254.322917 254.322917 254.322917 0 0 0"></polygon> </defs> <g id="Page-2" stroke="none" stroke-width="1" fill="none" fill-rule="evenodd"> <g id="1f697" transform="translate(-6.000000, -80.000000)"> <g id="g10" transform="translate(127.161458, 127.161458) scale(-1, 1) rotate(-180.000000) translate(-127.161458, -127.161458) "> <g id="g12"> <g id="g14-Clipped"> <mask id="mask-2" fill="white"> <use xlink:href="#path-1"></use> </mask> <g id="path18"></g> <g id="g14" mask="url(#mask-2)"> <g transform="translate(6.692708, 33.463542)"> <g id="g20" transform="translate(0.000000, 20.078125)"> <path d="M87.0052083,0 L220.859375,0 C220.859375,0 240.9375,0 240.9375,26.7708333 C240.9375,40.15625 240.9375,66.9270833 234.244792,73.6197917 C227.552083,80.3125 180.703125,120.46875 160.625,120.46875 L120.46875,120.46875 C100.390625,120.46875 53.5416667,73.6197917 53.5416667,73.6197917 L26.7708333,66.9270833 C26.7708333,66.9270833 6.69270833,60.234375 6.69270833,46.8489583 L6.69270833,26.7708333 C6.69270833,26.7708333 0,24.5086979 0,13.6732031 C0,0 13.3854167,0 13.3854167,0 L87.0052083,0 Z" id="path22" fill="#DD2E44" fill-rule="nonzero"></path> </g> <g id="g24" transform="translate(66.927083, 87.005208)"> <path d="M66.9270833,40.15625 L53.5416667,40.15625 C40.15625,40.15625 0,0 0,0 C0,0 33.4434635,1.76018229 66.9270833,3.47351563 L66.9270833,40.15625 Z" id="path26" fill="#BBDDF5" fill-rule="nonzero"></path> </g> <g id="g28" transform="translate(147.239583, 87.005208)"> <path d="M53.5416667,20.078125 C46.8489583,26.7708333 20.078125,40.15625 6.69270833,40.15625 L0,40.15625 L0,4.15617188 C26.8444531,5.52148438 50.7441146,6.69270833 53.5416667,6.69270833 C60.234375,6.69270833 60.234375,13.3854167 53.5416667,20.078125" id="path30" fill="#BBDDF5" fill-rule="nonzero"></path> </g> <g id="g32" transform="translate(40.156250, 0.000000)"> <path d="M53.5416667,26.7708333 C53.5416667,11.9866406 41.555026,0 26.7708333,0 C11.9866406,0 0,11.9866406 0,26.7708333 C0,41.555026 11.9866406,53.5416667 26.7708333,53.5416667 C41.555026,53.5416667 53.5416667,41.555026 53.5416667,26.7708333" id="path34" fill="#292F33" fill-rule="nonzero"></path> </g> <g id="g36" transform="translate(53.541667, 13.385417)"> <path d="M26.7708333,13.3854167 C26.7708333,5.99666667 20.7741667,0 13.3854167,0 C5.99666667,0 0,5.99666667 0,13.3854167 C0,20.7741667 5.99666667,26.7708333 13.3854167,26.7708333 C20.7741667,26.7708333 26.7708333,20.7741667 26.7708333,13.3854167" id="path38" fill="#CCD6DD" fill-rule="nonzero"></path> </g> <g id="g40" transform="translate(153.932292, 0.000000)"> <path d="M53.5416667,26.7708333 C53.5416667,11.9866406 41.555026,0 26.7708333,0 C11.9866406,0 0,11.9866406 0,26.7708333 C0,41.555026 11.9866406,53.5416667 26.7708333,53.5416667 C41.555026,53.5416667 53.5416667,41.555026 53.5416667,26.7708333" id="path42" fill="#292F33" fill-rule="nonzero"></path> </g> <g id="g44" transform="translate(167.317708, 13.385417)"> <path d="M26.7708333,13.3854167 C26.7708333,5.99666667 20.7741667,0 13.3854167,0 C5.99666667,0 0,5.99666667 0,13.3854167 C0,20.7741667 5.99666667,26.7708333 13.3854167,26.7708333 C20.7741667,26.7708333 26.7708333,20.7741667 26.7708333,13.3854167" id="path46" fill="#CCD6DD" fill-rule="nonzero"></path> </g> </g> </g> </g> </g> </g> </g> </g> </svg> 