<?xml version="1.0" encoding="UTF-8"?>
<svg width="118px" height="108px" viewBox="0 0 118 108" version="1.1" xmlns="http://www.w3.org/2000/svg" xmlns:xlink="http://www.w3.org/1999/xlink">
    <!-- Generator: Sketch 51.1 (57501) - http://www.bohemiancoding.com/sketch -->
    <title>Combined Shape</title>
    <desc>Created with Sketch.</desc>
    <defs></defs>
    <g id="Page-1" stroke="none" stroke-width="1" fill="none" fill-rule="evenodd">
        <g id="ICONS" transform="translate(-467.000000, -376.000000)" fill="#FFFFFF" fill-rule="nonzero">
            <g id="ICONS-SET" transform="translate(177.000000, 77.000000)">
                <g id="message" transform="translate(253.000000, 253.000000)">
                    <path d="M52,46 L140,46 C148.284271,46 155,52.7157288 155,61 L155,120 C155,128.284271 148.284271,135 140,135 L77.8691478,135 C74.9319924,135 72.0594642,135.862304 69.6079068,137.47994 L47.0143592,152.388075 C44.0374901,154.352334 40.0319148,153.53145 38.0676564,150.554581 C37.3712364,149.499144 37,148.262472 37,146.997977 L37,61 C37,52.7157288 43.7157288,46 52,46 Z M126.611111,104 C131.857816,104 136.111111,99.7467051 136.111111,94.5 C136.111111,89.2532949 131.857816,85 126.611111,85 C121.364406,85 117.111111,89.2532949 117.111111,94.5 C117.111111,99.7467051 121.364406,104 126.611111,104 Z M65.3888889,104 C70.635594,104 74.8888889,99.7467051 74.8888889,94.5 C74.8888889,89.2532949 70.635594,85 65.3888889,85 C60.1421838,85 55.8888889,89.2532949 55.8888889,94.5 C55.8888889,99.7467051 60.1421838,104 65.3888889,104 Z M96,104 C101.246705,104 105.5,99.7467051 105.5,94.5 C105.5,89.2532949 101.246705,85 96,85 C90.7532949,85 86.5,89.2532949 86.5,94.5 C86.5,99.7467051 90.7532949,104 96,104 Z" id="Combined-Shape"></path>
                </g>
            </g>
        </g>
    </g>
</svg>