<?xml version="1.0" encoding="UTF-8"?>
<svg width="149px" height="149px" viewBox="0 0 149 149" version="1.1" xmlns="http://www.w3.org/2000/svg" xmlns:xlink="http://www.w3.org/1999/xlink">
    <!-- Generator: Sketch 51.1 (57501) - http://www.bohemiancoding.com/sketch -->
    <title>Combined Shape</title>
    <desc>Created with Sketch.</desc>
    <defs></defs>
    <g id="✏️-Editor" stroke="none" stroke-width="1" fill="none" fill-rule="evenodd">
        <g id="Done-Copy" transform="translate(-26.000000, -26.000000)" fill="#384FA0" fill-rule="nonzero">
            <path d="M100.5,175 C59.3547861,175 26,141.645214 26,100.5 C26,59.3547861 59.3547861,26 100.5,26 C141.645214,26 175,59.3547861 175,100.5 C175,141.645214 141.645214,175 100.5,175 Z M125.806795,74.7765779 L97.1228615,118.940729 L74.8621178,103.40021 C72.5978661,101.819506 69.4809136,102.37363 67.9002096,104.637882 C66.3195055,106.902134 66.8736304,110.019086 69.1378822,111.59979 L95.6378822,130.09979 C97.9558702,131.718008 101.153405,131.094226 102.693205,128.723422 L134.193205,80.2234221 C135.69731,77.9075787 135.039266,74.810899 132.723422,73.3067945 C130.407579,71.80269 127.310899,72.4607345 125.806795,74.7765779 Z" id="Combined-Shape"></path>
        </g>
    </g>
</svg>